<svg width="48" height="42" viewBox="0 0 48 42" fill="none" xmlns="http://www.w3.org/2000/svg">
<path d="M28.6447 23.7095C32.0654 23.7095 34.8383 20.9365 34.8383 17.5159C34.8383 14.0953 32.0654 11.3223 28.6447 11.3223C25.2241 11.3223 22.4512 14.0953 22.4512 17.5159C22.4512 20.9365 25.2241 23.7095 28.6447 23.7095Z" fill="#FFDA00"/>
<path d="M23.9991 31.4516C22.2912 31.4516 20.9023 32.8404 20.9023 34.5484C20.9023 36.2563 22.2912 37.6452 23.9991 37.6452C25.7071 37.6452 27.0959 36.2563 27.0959 34.5484C27.0959 32.8404 25.7071 31.4516 23.9991 31.4516ZM23.9991 36.0968C23.1452 36.0968 22.4507 35.4023 22.4507 34.5484C22.4507 33.6945 23.1452 33 23.9991 33C24.853 33 25.5475 33.6945 25.5475 34.5484C25.5475 35.4023 24.8532 36.0968 23.9991 36.0968Z" fill="#414140"/>
<path d="M46.8899 24.195C46.1954 23.7134 45.3067 23.6043 44.5139 23.8992L44.4249 23.9326L36.0504 3.37606L14.9288 10.9198L10.5809 0.483746H2.32251C1.04201 0.483746 0 1.52575 0 2.80625C0 4.08675 1.04201 5.12892 2.32251 5.12892H7.23095L18.178 30.73C17.4558 31.8278 17.0323 33.1386 17.0323 34.5484C17.0323 38.3907 20.1585 41.5162 24 41.5162C27.8415 41.5162 30.9677 38.3909 30.9677 34.5484C30.9677 34.4717 30.9584 34.3966 30.9561 34.3208L46.3015 28.7411C47.3172 28.371 48 27.397 48 26.3156C48.0002 25.4693 47.5851 24.6773 46.8899 24.195ZM25.992 8.61268L28.3859 13.9988L25.9534 14.9719L23.5194 9.49597L25.992 8.61268ZM22.0569 10.0179L25.1436 16.9633L30.453 14.8396L27.4539 8.09093L35.1757 5.33323L42.975 24.4768L29.0077 29.7151C27.7396 28.4012 25.9651 27.5807 24.0002 27.5807C23.3027 27.5807 22.6306 27.6867 21.9949 27.878L15.5249 12.3505L22.0569 10.0179ZM2.32251 3.58053C1.89589 3.58053 1.54839 3.23369 1.54839 2.80625C1.54839 2.37881 1.89606 2.03197 2.32251 2.03197H9.54801L20.5717 28.4894C20.1119 28.7504 19.6876 29.0638 19.3005 29.4184L8.25297 3.58053H2.32251ZM24 39.9677C21.0116 39.9677 18.5807 37.536 18.5807 34.5482C18.5807 31.5604 21.0117 29.1288 24 29.1288C26.9883 29.1288 29.4193 31.5604 29.4193 34.5482C29.4193 37.536 26.9884 39.9677 24 39.9677ZM45.7728 27.2855L30.7264 32.7569C30.5599 32.1329 30.3098 31.5438 29.987 31.001L45.0575 25.3494C45.3795 25.2278 45.7249 25.2712 46.0081 25.4671C46.2899 25.663 46.4518 25.9727 46.4518 26.3156C46.4518 26.7483 46.1784 27.1377 45.7728 27.2855Z" fill="#414140"/>
</svg>
